<?xml version="1.0" encoding="UTF-8"?>
<svg width="150px" height="150px" viewBox="0 0 150 150" version="1.1" xmlns="http://www.w3.org/2000/svg" xmlns:xlink="http://www.w3.org/1999/xlink">
    <title>key-symbol-medium</title>
    <defs>
        <circle id="path-1" cx="75.5934385" cy="74.9412646" r="37.1151776"></circle>
        <filter x="-40.4%" y="-40.4%" width="180.8%" height="180.8%" filterUnits="objectBoundingBox" id="filter-2">
            <feMorphology radius="2.5" operator="dilate" in="SourceAlpha" result="shadowSpreadOuter1"></feMorphology>
            <feOffset dx="0" dy="0" in="shadowSpreadOuter1" result="shadowOffsetOuter1"></feOffset>
            <feGaussianBlur stdDeviation="7.5" in="shadowOffsetOuter1" result="shadowBlurOuter1"></feGaussianBlur>
            <feColorMatrix values="0 0 0 0 0   0 0 0 0 0   0 0 0 0 0  0 0 0 0.3 0" type="matrix" in="shadowBlurOuter1"></feColorMatrix>
        </filter>
        <linearGradient x1="50.0183833%" y1="0.0176582482%" x2="50.0183833%" y2="99.9985397%" id="linearGradient-3">
            <stop stop-color="#00A19A" offset="0%"></stop>
            <stop stop-color="#343F84" offset="100%"></stop>
        </linearGradient>
    </defs>
    <g id="key-symbol-medium" stroke="none" stroke-width="1" fill="none" fill-rule="evenodd">
        <g id="Group">
            <g opacity="0.398867653" fill="#00A19A">
                <circle id="grey3" opacity="0.15" cx="75" cy="75" r="75"></circle>
                <circle id="grey2" opacity="0.25" cx="75" cy="75" r="62.6086957"></circle>
                <circle id="grey1" opacity="0.3" cx="75" cy="75" r="52.173913"></circle>
            </g>
            <g id="Oval" fill-rule="nonzero" transform="translate(75.593439, 74.941265) rotate(-45.000000) translate(-75.593439, -74.941265) ">
                <use fill="black" fill-opacity="1" filter="url(#filter-2)" xlink:href="#path-1"></use>
                <use fill="#FFFFFF" xlink:href="#path-1"></use>
            </g>
            <g transform="translate(43.926316, 44.000000)" fill="url(#linearGradient-3)" fill-rule="nonzero" id="logo-gradient">
                <g>
                    <path d="M31.3378305,1.94467674e-06 C18.6666994,-0.00442377195 7.24076164,7.54556511 2.3886291,19.1289502 C-2.46350343,30.7123352 0.213872709,44.0475873 9.17213371,52.915665 C18.1303947,61.7837426 31.6050708,64.437939 43.3120984,59.6404405 C55.0191261,54.8429419 62.6526257,43.5386909 62.6526257,30.9995492 C62.6555581,22.7789654 59.3576259,14.8940815 53.4846449,9.08022417 C47.6116639,3.26636683 39.6449469,1.94467674e-06 31.3378305,1.94467674e-06 Z M54.5667481,33.6266294 L51.2483313,33.6266294 C50.6389172,33.8751051 50.2413657,34.4630591 50.2417449,35.1153081 L50.2417449,36.8666948 C50.2396579,37.3459914 50.0379233,37.8032214 49.684118,38.1305524 C49.3303127,38.4578834 48.8557573,38.6263384 48.3723701,38.5961892 C47.4437582,38.5107862 46.7365873,37.7348124 46.7463459,36.811964 L46.7463459,35.1372004 C46.7276651,34.6604397 46.4917684,34.2177098 46.1047853,33.933122 C45.9656482,33.820766 45.8086637,33.731995 45.6402069,33.670414 C45.4279324,33.5916939 45.203212,33.5509243 44.9765236,33.5500062 L44.8437869,33.5500062 C44.6207742,33.5517549 44.3998313,33.5925186 44.1911649,33.670414 C44.0265986,33.7330705 43.8734263,33.8217983 43.737648,33.933122 C43.3696017,34.2355654 43.1584137,34.6856936 43.1624557,35.1590928 L43.1624557,40.3694683 C43.1605691,40.8478997 42.958494,41.3041836 42.6042841,41.6298148 C42.2500743,41.9554459 41.7753787,42.121329 41.2930809,42.0880166 C40.3618981,42.0077052 39.6519154,41.2286461 39.6670567,40.3037913 L39.6670567,35.1372004 C39.6727861,34.6767638 39.4747709,34.2368705 39.1250486,33.933122 C38.9834328,33.8184303 38.8223955,33.7294853 38.6494089,33.670414 C38.4410009,33.5916072 38.2198904,33.5508126 37.9967869,33.5500062 L37.9082958,33.5500062 C37.6852831,33.5517549 37.4643402,33.5925186 37.2556738,33.670414 C37.087217,33.731995 36.9302325,33.820766 36.7910954,33.933122 C36.4230491,34.2355654 36.2118612,34.6856936 36.2159032,35.1590928 L36.2159032,35.1590928 C36.2159033,35.7769816 35.8827936,36.3479345 35.3420535,36.656879 C34.8013134,36.9658234 34.135094,36.9658234 33.5943539,36.656879 C33.0536137,36.3479345 32.7205041,35.7769816 32.7205042,35.1590928 L32.7205042,35.1590928 C32.7245462,34.6856936 32.5133582,34.2355654 32.1453119,33.933122 C32.0036961,33.8184303 31.8426588,33.7294853 31.6696722,33.670414 L28.8490179,33.670414 C27.5448078,39.3831058 22.0269831,43.1478292 16.1677015,42.3226731 C10.3084199,41.4975169 6.07096848,36.3589687 6.42899742,30.5130273 C6.78702635,24.6670858 11.6205698,20.0725683 17.5376674,19.9536975 C23.454765,19.8348268 28.4727571,24.2314331 29.0702457,30.0581789 L31.3599533,30.0581789 C31.7058824,29.9842758 32.0194259,29.8042383 32.2559258,29.543709 C32.5412097,29.1818241 32.6898741,28.7327339 32.6762586,28.2739536 L32.6762586,26.5335131 C32.6762586,25.9156242 33.0093682,25.3446713 33.5501083,25.0357268 C34.0908485,24.7267824 34.7570678,24.7267824 35.2978079,25.0357268 C35.8385481,25.3446713 36.1716577,25.9156242 36.1716576,26.5335131 L36.1716576,26.5335131 C36.1773376,26.9865731 36.3415132,27.4236826 36.636236,27.7704299 C36.9580074,28.1307673 37.4224024,28.3345711 37.9082958,28.3286845 L37.9082958,28.3286845 C38.3971366,28.3334203 38.8644727,28.1300938 39.1914169,27.7704299 C39.4861397,27.4236826 39.6503154,26.9865731 39.6559953,26.5335131 L39.6559953,21.3450298 C39.6545777,20.8655438 39.8556504,20.4072743 40.2106399,20.0809264 C40.5656294,19.7545785 41.0422524,19.5898308 41.5253701,19.6264816 C42.458367,19.7065248 43.1717362,20.4840109 43.1624557,21.4107068 L43.1624557,28.2739536 C43.1630069,29.0531786 43.6458491,29.7525226 44.3792085,30.0362865 L45.4189791,30.0362865 C46.1566884,29.756048 46.6444694,29.0559156 46.6467934,28.2739536 L46.6467934,26.5335131 C46.6458243,26.0552117 46.8450616,25.5978694 47.1971507,25.2701873 C47.5492397,24.9425052 48.0227389,24.7737454 48.5051068,24.8040186 C49.4381037,24.8840619 50.1514729,25.661548 50.1421924,26.5882439 L50.1421924,28.2848998 C50.1441858,29.0610812 50.62732,29.7565018 51.3589452,30.0362865 L54.5114412,30.0362865 C55.4570529,30.0991461 56.194407,30.8717415 56.2038338,31.8095656 L56.2038338,31.8095656 C56.2304075,32.7587291 55.5011209,33.5622105 54.5446254,33.6375755 L54.5667481,33.6266294 Z M25.5084783,31.1637418 C25.5084783,35.3955226 22.0418314,38.8260588 17.7655058,38.8260588 C13.4891801,38.8260588 10.0225332,35.3955226 10.0225332,31.1637418 C10.0225332,26.9319609 13.4891801,23.5014248 17.7655058,23.5014248 C22.0418314,23.5014248 25.5084783,26.9319609 25.5084783,31.1637418 Z" id="Shape"></path>
                </g>
            </g>
        </g>
    </g>
</svg>