<?xml version="1.0" encoding="UTF-8"?>
<svg width="139px" height="139px" viewBox="0 0 139 139" version="1.1" xmlns="http://www.w3.org/2000/svg" xmlns:xlink="http://www.w3.org/1999/xlink">
    <title>icon-success-graphic</title>
    <defs>
        <linearGradient x1="50.0183833%" y1="0.0176582482%" x2="50.0183833%" y2="99.9985397%" id="linearGradient-1">
            <stop stop-color="#00A19A" offset="0%"></stop>
            <stop stop-color="#343F84" offset="100%"></stop>
        </linearGradient>
    </defs>
    <g id="icon-success-graphic" stroke="none" stroke-width="1" fill="none" fill-rule="evenodd">
        <g id="mega-tick-icon" transform="translate(1.000000, 1.000000)">
            <circle id="Oval" fill="url(#linearGradient-1)" cx="68.5" cy="68.5" r="68.5"></circle>
            <path d="M107.147347,45.6677793 L97.4679443,35.9813827 C97.1427405,35.6560522 96.701175,35.4732143 96.2406848,35.4732143 C95.7801946,35.4732143 95.3386291,35.6560522 95.0134252,35.9813827 L54.1325082,76.8026257 C53.8073043,77.1279561 53.3657389,77.3107941 52.9052487,77.3107941 C52.4447585,77.3107941 52.003193,77.1279561 51.6779891,76.8026257 L41.9985861,67.116229 C41.6733822,66.7908986 41.2318167,66.6080607 40.7713266,66.6080607 C40.3108364,66.6080607 39.8692709,66.7908986 39.544067,67.116229 L29.864664,76.8026257 C29.1879691,77.4780786 29.1879691,78.5729879 29.864664,79.2484409 L51.6779891,101.018617 C52.003193,101.343948 52.4447585,101.526786 52.9052487,101.526786 C53.3657389,101.526786 53.8073043,101.343948 54.1325082,101.018617 L107.147347,48.0893785 C107.808027,47.4167905 107.808027,46.3403673 107.147347,45.6677793 Z" id="Path" fill="#FFFFFF" fill-rule="nonzero"></path>
        </g>
    </g>
</svg>